<!--?xml version="1.0" standalone="no"?-->
              <svg id="sw-js-blob-svg" viewBox="0 0 100 100" xmlns="http://www.w3.org/2000/svg" version="1.1">
                    <defs> 
                        <linearGradient id="sw-gradient" x1="0" x2="1" y1="1" y2="0">
                            <stop id="stop1" stop-color="rgba(163.302, 97.313, 226.616, 1)" offset="0%"></stop>
                            <stop id="stop2" stop-color="rgba(140.85, 63.426, 255, 1)" offset="100%"></stop>
                        </linearGradient>
                    </defs>
                <path fill="url(#sw-gradient)" d="M17.4,-30.1C24.4,-26.1,33.1,-25.1,38.6,-20.6C44.2,-16.1,46.6,-8,46.7,0C46.7,8.1,44.5,16.2,40.2,23C35.9,29.7,29.6,35.1,22.6,36.8C15.6,38.5,7.8,36.5,0.1,36.4C-7.7,36.2,-15.3,38,-21.7,36C-28.1,33.9,-33.1,28,-35.7,21.3C-38.2,14.7,-38.2,7.4,-36.2,1.2C-34.1,-5,-30,-10,-26.6,-15C-23.1,-20.1,-20.3,-25.2,-16,-30.7C-11.7,-36.3,-5.8,-42.3,-0.3,-41.8C5.2,-41.3,10.4,-34.2,17.4,-30.1Z" width="100%" height="100%" transform="translate(50 50)" style="transition: all 0.3s ease 0s;" stroke-width="0" stroke="url(#sw-gradient)"></path>
              </svg>